<svg width="217" height="42" viewBox="0 0 217 42" fill="none" xmlns="http://www.w3.org/2000/svg">
<path fill-rule="evenodd" clip-rule="evenodd" d="M126.85 12.0089C126.31 12.4958 125.598 12.737 124.715 12.7325C123.832 12.7281 123.122 12.4797 122.587 11.9874C122.052 11.495 121.786 10.8841 121.79 10.1545C121.794 9.40572 122.066 8.78788 122.606 8.30101C123.146 7.81413 123.858 7.57292 124.741 7.57738C125.624 7.58185 126.334 7.83023 126.869 8.32254C127.404 8.81485 127.67 9.4354 127.666 10.1842C127.662 10.9138 127.39 11.522 126.85 12.0089ZM63.5502 26.6797L63.5311 30.4524L52.0384 30.3944L52.1413 10.033L57.0667 10.0579L56.9829 26.6465L63.5502 26.6797ZM77.6058 29.7315C76.3447 30.3876 74.9172 30.7116 73.3234 30.7035C71.7296 30.6955 70.3007 30.357 69.0367 29.6882C67.7726 29.0194 66.7837 28.0592 66.0699 26.8076C65.3562 25.556 65.0035 24.095 65.0119 22.4246C65.0204 20.7542 65.3878 19.2969 66.1142 18.0525C66.8406 16.8082 67.8391 15.858 69.1098 15.202C70.3806 14.546 71.8128 14.2221 73.4066 14.2301C75.0004 14.2382 76.4246 14.5766 77.679 15.2453C78.9334 15.9141 79.9175 16.8742 80.6313 18.1259C81.3451 19.3775 81.6978 20.8385 81.6893 22.5089C81.6809 24.1792 81.3135 25.6366 80.5871 26.8809C79.8607 28.1253 78.8669 29.0755 77.6058 29.7315ZM73.3451 26.4124C72.4042 26.4076 71.6137 26.0676 70.9739 25.3924C70.334 24.7171 70.0173 23.7363 70.0238 22.4499C70.0303 21.1636 70.3569 20.1812 71.0036 19.5028C71.6503 18.8245 72.4442 18.4877 73.3851 18.4925C74.326 18.4972 75.1116 18.842 75.7418 19.5268C76.3721 20.2116 76.6839 21.1972 76.6774 22.4835C76.6709 23.7699 76.3492 24.7475 75.7121 25.4163C75.075 26.0851 74.286 26.4171 73.3451 26.4124ZM96.7938 37.4462C95.5997 38.1505 94.1193 38.4983 92.3527 38.4893C89.9331 38.4771 88.0014 37.8961 86.5574 36.7464C85.1133 35.5967 84.2523 34.042 83.9741 32.0821L88.842 32.1067C88.9923 32.7603 89.3402 33.2709 89.8856 33.6384C90.431 34.006 91.1454 34.192 92.0287 34.1964C93.0464 34.2016 93.8688 33.9129 94.4959 33.3305C95.1229 32.7481 95.4397 31.8136 95.4462 30.5273L95.4604 27.7049C95.0331 28.6628 94.3764 29.4178 93.4903 29.9702C92.6041 30.5225 91.5466 30.7956 90.3176 30.7894C88.9927 30.7827 87.8086 30.4455 86.7654 29.7778C85.7222 29.1101 84.9013 28.1508 84.3027 26.8997C83.7042 25.6487 83.4091 24.188 83.4175 22.5176C83.4261 20.828 83.7359 19.3656 84.347 18.1302C84.9582 16.8949 85.7887 15.9487 86.8386 15.2916C87.8885 14.6345 89.0759 14.3093 90.4009 14.316C91.6298 14.3222 92.6846 14.6059 93.5651 15.1672C94.4456 15.7284 95.0946 16.4901 95.5122 17.4522L95.5269 14.5435L100.424 14.5682L100.343 30.552C100.335 32.0496 100.04 33.3969 99.4583 34.594C98.8761 35.7911 97.988 36.7418 96.7938 37.4462ZM91.9237 26.4774C90.8675 26.4721 90.0196 26.1222 89.3798 25.4278C88.74 24.7333 88.4232 23.7717 88.4294 22.5429C88.4356 21.3142 88.7621 20.3558 89.4089 19.6679C90.0557 18.9799 90.9071 18.6386 91.9633 18.6439C93.0002 18.6492 93.8481 19.0039 94.5071 19.708C95.166 20.4121 95.4924 21.369 95.4863 22.5786C95.4803 23.769 95.1443 24.7177 94.4782 25.4247C93.8121 26.1318 92.9606 26.4827 91.9237 26.4774ZM115.54 29.9231C114.279 30.5792 112.852 30.9032 111.258 30.8951C109.664 30.8871 108.235 30.5487 106.971 29.8799C105.707 29.2111 104.718 28.2509 104.005 26.9992C103.291 25.7476 102.938 24.2866 102.947 22.6162C102.955 20.9459 103.322 19.4885 104.049 18.2441C104.775 16.9998 105.774 16.0496 107.044 15.3936C108.315 14.7377 109.747 14.4137 111.341 14.4217C112.935 14.4298 114.359 14.7682 115.614 15.4369C116.868 16.1057 117.852 17.0659 118.566 18.3175C119.28 19.5691 119.632 21.0301 119.624 22.7005C119.615 24.3709 119.248 25.8282 118.522 27.0726C117.795 28.3169 116.801 29.2671 115.54 29.9231ZM111.28 26.604C110.339 26.5992 109.548 26.2592 108.908 25.584C108.269 24.9088 107.952 23.9279 107.958 22.6416C107.965 21.3552 108.291 20.3728 108.938 19.6945C109.585 19.0161 110.379 18.6793 111.32 18.6841C112.261 18.6888 113.046 19.0336 113.676 19.7184C114.307 20.4032 114.619 21.3888 114.612 22.6752C114.606 23.9616 114.284 24.9391 113.647 25.6079C113.01 26.2767 112.221 26.6087 111.28 26.604ZM127.072 30.7735L127.153 14.7033L122.228 14.6784L122.147 30.7486L127.072 30.7735ZM135.411 27.9067L135.358 38.4762L130.432 38.4513L130.552 14.7204L135.478 14.7453L135.463 17.6541C135.871 16.6961 136.518 15.941 137.404 15.3887C138.291 14.8363 139.348 14.5633 140.577 14.5695C141.902 14.5762 143.086 14.9134 144.129 15.581C145.173 16.2487 145.993 17.2033 146.592 18.4447C147.191 19.6861 147.486 21.1517 147.477 22.8412C147.469 24.5116 147.159 25.9693 146.548 27.2142C145.937 28.4591 145.106 29.4101 144.056 30.0672C143.006 30.7243 141.819 31.0496 140.494 31.0429C139.265 31.0367 138.21 30.7529 137.33 30.1917C136.449 29.6304 135.81 28.8688 135.411 27.9067ZM138.931 26.7149C137.895 26.7097 137.047 26.3502 136.388 25.6364C135.729 24.9227 135.402 23.9707 135.408 22.7803C135.414 21.5707 135.751 20.6172 136.417 19.9197C137.083 19.2223 137.934 18.8762 138.971 18.8814C140.027 18.8867 140.875 19.2366 141.515 19.9311C142.155 20.6255 142.472 21.5871 142.465 22.8159C142.459 24.0447 142.133 25.0031 141.486 25.691C140.839 26.3789 139.988 26.7202 138.931 26.7149ZM160.343 30.5383C159.4 30.9368 158.285 31.1327 156.998 31.1262C154.829 31.1153 153.093 30.6265 151.792 29.6599C150.491 28.6933 149.701 27.3165 149.422 25.5295L154.175 25.5535C154.248 26.2451 154.538 26.7746 155.045 27.1419C155.552 27.5093 156.209 27.695 157.016 27.6991C157.573 27.7019 157.996 27.5744 158.285 27.3167C158.574 27.0589 158.72 26.7189 158.722 26.2965C158.725 25.7397 158.463 25.34 157.936 25.0973C157.409 24.8546 156.551 24.5959 155.362 24.3211C154.173 24.0655 153.195 23.7917 152.428 23.4999C151.662 23.208 151.001 22.739 150.448 22.093C149.894 21.447 149.62 20.5672 149.626 19.4536C149.633 18.0137 150.186 16.85 151.285 15.9628C152.384 15.0755 153.932 14.6369 155.929 14.647C157.965 14.6573 159.59 15.1743 160.804 16.1981C162.018 17.2218 162.775 18.5697 163.074 20.2416L158.465 20.2183C158.334 19.5648 158.034 19.0497 157.565 18.6729C157.097 18.2962 156.507 18.106 155.797 18.1024C155.24 18.0996 154.817 18.2175 154.528 18.456C154.238 18.6945 154.093 19.0346 154.09 19.4762C154.088 19.9754 154.35 20.3511 154.877 20.6034C155.404 20.8557 156.233 21.1094 157.365 21.3648C158.592 21.659 159.599 21.9569 160.385 22.2584C161.17 22.56 161.85 23.0482 162.422 23.7231C162.995 24.398 163.278 25.3019 163.273 26.4347C163.268 27.3563 163.014 28.171 162.511 28.8789C162.009 29.5867 161.286 30.1399 160.343 30.5383ZM171.775 31.1721C172.985 31.1782 174.047 30.9052 174.962 30.353C175.877 29.8008 176.567 29.0555 177.033 28.117L177.018 31.0258L181.972 31.0508L182.054 14.9806L177.099 14.9556L177.056 23.4803C177.05 24.6515 176.758 25.5524 176.178 26.1831C175.599 26.8138 174.81 27.1266 173.812 27.1215C172.852 27.1167 172.09 26.8104 171.526 26.2028C170.963 25.5951 170.684 24.7441 170.69 23.6497L170.734 14.9234L165.837 14.8987L165.79 24.2298C165.779 26.3801 166.313 28.0725 167.392 29.3067C168.47 30.541 169.931 31.1628 171.775 31.1721ZM190.34 22.5681L190.297 31.0928L185.371 31.068L185.452 14.9978L190.378 15.0226L190.364 17.7586C190.791 16.8583 191.443 16.1512 192.319 15.6373C193.195 15.1233 194.219 14.8692 195.391 14.8752C196.619 14.8814 197.703 15.17 198.641 15.7412C199.579 16.3123 200.286 17.1271 200.76 18.1855C201.322 17.19 202.089 16.397 203.062 15.8067C204.035 15.2164 205.107 14.9242 206.278 14.9302C208.256 14.9402 209.809 15.5576 210.935 16.7825C212.062 18.0074 212.62 19.7047 212.609 21.8742L212.562 31.2053L207.665 31.1806L207.71 22.4255C207.715 21.4079 207.445 20.6145 206.901 20.0454C206.356 19.4762 205.614 19.1893 204.673 19.1845C203.693 19.1796 202.919 19.4781 202.349 20.08C201.78 20.6819 201.492 21.5301 201.487 22.6245L201.444 31.1491L196.518 31.1243L196.562 22.3692C196.568 21.3516 196.303 20.5582 195.768 19.9891C195.233 19.42 194.495 19.1331 193.554 19.1283C192.575 19.1234 191.796 19.4171 191.217 20.0093C190.638 20.6016 190.345 21.4546 190.34 22.5681Z" fill="#D8D8D8"/>
<circle cx="214.4" cy="12.8" r="2.4" fill="white"/>
<path fill-rule="evenodd" clip-rule="evenodd" d="M27.2 28C34.7111 28 40.8 21.732 40.8 14C40.8 6.26801 34.7111 0 27.2 0C19.8189 0 13.8111 6.05299 13.6055 13.6C13.6036 13.6 13.6018 13.6 13.6 13.6C6.08894 13.6 1.52588e-05 19.868 1.52588e-05 27.6C1.52588e-05 35.332 6.08894 41.6 13.6 41.6C20.9811 41.6 26.9889 35.547 27.1946 28C27.1964 28 27.1982 28 27.2 28ZM13.6 14C13.6 21.7301 19.686 27.997 27.1946 28C27.1982 27.8671 27.2 27.7338 27.2 27.6C27.2 19.8699 21.114 13.603 13.6055 13.6C13.6018 13.7329 13.6 13.8662 13.6 14Z" fill="#D8D8D8"/>
</svg>
